<svg viewBox="0 0 112 56"><polygon points="18.041 44.172 12.314 11.828 17.217 11.828 20.648 34.634 24.079 11.828 28.981 11.828 23.255 44.172 18.041 44.172"></polygon><polygon points="38.285 16.083 34.538 16.083 38.843 30.026 38.843 39.917 42.252 39.917 42.252 30.026 46.557 16.083 42.809 16.083 40.547 25.603 38.285 16.083"></polygon><path d="M55.9083,18.5416c2.5448,0,4.2157,1.7219,4.2157,4.6526v9.3044c0,3.2119-1.5939,4.96-4.3186,4.96-2.7758,0-4.2918-1.7219-4.2918-5.0377V23.1172C51.5136,20.29,53.1325,18.5416,55.9083,18.5416Zm1.269,4.6367c0-1.2-.4656-1.7866-1.3713-1.7866s-1.37.5868-1.37,1.7866v9.6442c0,1.1991.4648,1.8113,1.37,1.8113s1.3713-.6122,1.3713-1.8113Z"></path><polygon points="74.482 16.083 74.482 31.593 69.52 16.083 66.211 16.083 66.211 39.917 69.621 39.917 69.621 25.364 74.482 39.917 77.926 39.917 77.926 16.083 74.482 16.083"></polygon><path d="M85.7209,11.8277h7.1012c5.5441,0,8.0634,2.8866,8.0634,8.8875V35.1467c0,6.1853-2.29,9.0256-7.8342,9.0256h-7.33Zm7.4678,27.5807c1.8789,0,2.6119-1.1914,2.6119-3.3905V20.4405c0-2.6575-1.2369-3.8481-3.9862-3.8481H90.6693v22.816Z"></path></svg>
